<?xml version="1.0" standalone="no"?>
<!DOCTYPE svg PUBLIC "-//W3C//DTD SVG 20010904//EN"
 "http://www.w3.org/TR/2001/REC-SVG-20010904/DTD/svg10.dtd">
<svg version="1.0" xmlns="http://www.w3.org/2000/svg"
 width="1104.000000pt" height="1104.000000pt" viewBox="0 0 1104.000000 1104.000000"
 preserveAspectRatio="xMidYMid meet">
<metadata>
Created by potrace 1.15, written by Peter Selinger 2001-2017
</metadata>
<g transform="translate(0.000000,1104.000000) scale(0.100000,-0.100000)"
fill="#000000" stroke="none">
<path d="M0 5520 l0 -5520 5520 0 5520 0 0 5520 0 5520 -5520 0 -5520 0 0
-5520z m8341 3685 c475 -55 788 -244 879 -530 31 -97 39 -281 17 -387 -18 -85
-15 -103 18 -133 37 -34 246 -227 307 -284 59 -55 69 -79 44 -100 -16 -13
-137 20 -426 116 -144 49 -177 56 -260 59 -107 5 -274 27 -365 48 -247 59
-607 225 -745 343 -72 62 -168 122 -235 148 -210 80 -392 -36 -502 -320 -71
-184 -96 -312 -97 -495 -1 -162 9 -214 71 -360 19 -47 35 -97 35 -111 -1 -15
8 -35 18 -44 12 -11 20 -13 20 -6 0 6 -7 14 -15 17 -16 7 -21 34 -6 34 13 0
34 -57 26 -70 -3 -6 -14 -9 -23 -8 -10 2 -17 -4 -17 -12 -1 -24 -15 -40 -43
-52 l-27 -10 25 -11 c14 -6 27 -12 28 -13 2 -1 1 -12 -3 -23 -7 -24 -25 -28
-25 -6 0 13 -4 14 -21 4 -14 -7 -18 -14 -11 -18 8 -5 5 -13 -8 -24 -11 -9 -20
-24 -20 -32 0 -8 -4 -15 -10 -15 -5 0 -10 -7 -10 -15 0 -8 7 -15 15 -15 11 0
15 -11 15 -40 0 -33 -3 -40 -19 -40 -15 0 -18 -5 -13 -22 5 -22 4 -22 -15 -5
-28 24 -38 21 -13 -5 21 -22 27 -58 11 -58 -5 0 -11 10 -13 22 -2 13 -11 24
-22 26 -18 4 -19 3 -3 -13 18 -17 22 -35 10 -35 -5 0 -24 22 -43 47 -19 26
-40 51 -46 57 -20 21 -186 261 -225 326 -48 82 -90 197 -135 375 -32 126 -37
157 -41 310 -7 240 23 394 117 599 105 230 298 434 539 571 189 106 462 198
651 218 100 11 496 6 611 -8z m-3393 -2725 c6 0 12 -4 12 -10 0 -5 4 -10 9
-10 5 0 66 -27 136 -60 70 -33 129 -60 132 -60 6 0 237 -112 512 -248 675
-335 1239 -762 1514 -1148 77 -107 179 -301 210 -399 27 -83 37 -163 37 -282
0 -337 -173 -689 -495 -1008 -183 -181 -311 -290 -427 -363 -35 -22 -41 -37
-15 -39 11 -1 31 -13 44 -27 20 -22 21 -25 5 -29 -9 -3 3 -6 28 -7 42 -2 43
-3 15 -10 -22 -6 -5 -8 60 -10 l90 -3 -70 -8 c-38 -4 -144 -11 -235 -15 -156
-7 -167 -8 -205 -34 -190 -127 -756 -436 -782 -426 -7 3 -12 0 -10 -6 1 -6
-35 -28 -81 -49 -45 -21 -80 -34 -76 -28 8 13 -35 2 -50 -12 -6 -5 -15 -9 -20
-9 -22 0 33 30 75 40 l44 11 -4 52 c-4 65 -13 78 -50 67 -35 -10 -78 -1 -111
23 -23 17 -24 19 -8 31 17 12 17 14 0 30 -10 9 -26 16 -35 16 -9 0 -20 6 -24
14 -4 8 -17 16 -28 19 -11 3 -5 5 14 4 23 -1 35 3 38 13 4 13 3 13 -6 0 -7
-10 -14 -11 -18 -5 -9 12 -63 14 -63 3 0 -5 -7 -8 -15 -8 -26 0 -16 13 56 75
39 33 94 83 122 110 29 28 94 89 146 137 61 57 89 89 80 93 -8 2 -56 20 -107
40 -338 127 -837 236 -1367 297 -148 17 -665 17 -820 0 -486 -54 -921 -172
-1335 -365 -128 -59 -306 -158 -403 -224 -44 -29 -81 -53 -83 -53 -16 0 120
213 176 275 147 165 355 322 576 435 94 48 105 45 19 -5 l-40 -24 35 1 c19 1
29 3 22 6 -9 3 -6 8 10 16 45 23 57 26 51 10 -3 -7 -12 -14 -21 -14 -8 0 -13
-3 -10 -6 8 -8 111 28 120 42 4 7 20 15 35 19 16 4 35 9 43 11 8 2 40 9 70 15
155 30 200 41 200 50 0 5 11 9 25 9 14 0 52 9 84 20 32 10 69 17 82 14 27 -6
31 -6 76 -1 18 2 39 9 47 16 9 7 68 14 153 18 87 3 148 10 165 19 46 24 375
38 463 21 22 -4 67 -9 100 -11 152 -7 291 -19 300 -26 6 -5 36 -13 68 -19 32
-6 62 -13 67 -16 5 -3 11 -1 15 5 8 12 85 14 85 1 0 -5 30 -14 68 -20 37 -6
90 -16 117 -21 28 -6 68 -13 90 -16 22 -3 42 -9 45 -14 9 -14 61 -31 79 -25 9
2 29 -2 45 -10 23 -13 31 -13 37 -3 7 10 11 10 21 0 6 -6 30 -12 53 -12 22 0
56 -5 75 -10 80 -20 156 -38 173 -39 39 -2 47 -5 47 -13 0 -4 17 -8 38 -8 20
0 55 -5 77 -11 49 -12 60 -14 153 -28 40 -6 89 -18 109 -26 19 -8 45 -15 58
-15 12 0 25 -3 29 -7 20 -20 53 -5 92 42 94 116 167 240 238 408 25 58 21 74
-26 103 -160 100 -317 211 -314 221 3 7 0 10 -7 7 -7 -2 -25 7 -41 21 -30 26
-28 32 3 15 16 -8 18 -5 17 22 -1 25 7 39 41 71 24 22 40 43 38 47 -9 15 18
60 36 60 20 0 30 20 23 47 -3 10 2 35 11 57 19 45 30 44 13 -1 -26 -70 26
-185 170 -378 41 -55 76 -102 78 -104 9 -10 15 12 25 94 12 100 1 228 -31 342
-25 91 -32 96 -134 96 -47 0 -83 4 -80 8 2 4 12 5 21 2 12 -5 14 -3 8 7 -6 10
-4 12 8 7 9 -3 16 -3 16 1 -3 18 3 46 8 35 10 -26 24 -12 18 17 -6 26 -4 29
12 24 13 -4 14 -3 5 3 -7 5 -11 16 -9 24 2 8 2 11 0 6 -10 -17 -23 6 -17 30 5
20 4 24 -6 18 -10 -6 -12 -4 -7 8 15 38 -177 236 -320 328 -28 19 -141 102
-250 185 -278 212 -582 415 -893 599 -63 37 -141 83 -172 102 -32 19 -70 40
-85 48 -53 28 2 14 60 -14 31 -16 57 -25 57 -21 0 4 -13 13 -30 20 -28 12 -41
30 -21 30 6 0 8 9 6 20 -2 11 0 20 5 20 4 0 15 3 24 6 11 4 17 -2 22 -21 6
-26 7 -26 21 -5 8 11 39 36 69 55 30 20 53 39 50 44 -3 5 4 11 15 14 11 3 23
14 26 25 8 32 145 62 185 41 13 -7 23 -8 27 -1 3 5 39 13 80 17 71 7 74 8 122
58 41 43 49 57 49 89 0 21 5 38 10 38 6 0 10 14 10 30 0 17 5 30 10 30 6 0 10
20 10 45 0 39 -5 50 -45 91 -27 27 -55 47 -69 48 -13 0 -22 4 -20 7 2 3 -14
14 -36 24 -22 10 -40 22 -40 26 0 5 30 -7 68 -26 37 -19 73 -35 80 -35z m-725
-777 c76 -40 155 -84 175 -97 20 -12 44 -25 52 -29 8 -3 58 -33 110 -66 52
-33 134 -84 182 -113 48 -28 86 -54 84 -55 -2 -2 -30 8 -62 22 -255 114 -526
201 -717 230 -33 5 -37 8 -26 21 10 13 10 17 -2 25 -12 8 -11 11 3 23 10 7 15
16 12 19 -8 8 33 74 49 81 7 2 2 5 -10 5 -12 1 -25 6 -29 12 -12 20 35 -1 179
-78z m-298 -383 c50 -99 232 -318 431 -520 57 -57 101 -106 99 -109 -3 -2 -10
1 -18 7 -7 6 -64 37 -127 70 -229 118 -551 308 -469 277 19 -7 37 46 44 125 2
29 11 63 20 76 19 30 11 47 -18 39 -16 -5 -18 -4 -8 3 8 6 10 15 5 23 -6 11
-5 11 9 0 27 -21 32 -5 8 25 -22 28 -28 50 -11 39 6 -4 21 -28 35 -55z m1137
-188 c109 -60 166 -94 266 -160 153 -100 351 -237 348 -240 -2 -1 -63 26 -137
62 -258 123 -425 179 -541 180 -43 1 -78 4 -78 8 0 3 -6 8 -12 11 -7 2 0 2 16
-1 27 -4 28 -3 15 11 -9 8 -24 17 -35 20 -15 4 -13 6 6 5 44 -1 63 2 58 7 -9
9 54 75 71 75 9 0 -5 14 -31 30 -84 53 -47 47 54 -8z m-158 -161 c3 -5 0 -11
-8 -14 -15 -6 -39 -88 -28 -97 4 -3 13 -23 20 -45 33 -98 218 -354 396 -550
52 -56 67 -86 29 -53 -10 8 -61 39 -113 68 -172 98 -434 272 -505 336 -21 19
-24 25 -10 19 11 -4 29 -7 40 -7 14 1 16 -1 7 -7 -11 -6 -11 -10 0 -18 30 -23
42 -26 24 -5 -14 17 -16 22 -5 22 10 0 11 2 2 8 -24 15 27 155 61 168 8 3 11
15 8 30 -3 18 -1 23 10 19 12 -5 16 5 20 40 3 25 13 54 22 64 9 10 13 21 9 24
-3 4 -1 7 5 7 6 0 13 -4 16 -9z"/>
<path d="M8584 8736 c-14 -37 76 -143 168 -196 58 -33 115 -40 124 -15 8 20
-35 84 -88 135 -75 70 -190 113 -204 76z"/>
</g>
</svg>
